<mxfile host="Electron" modified="2024-05-11T10:47:10.220Z" agent="5.0 (Windows NT 10.0; Win64; x64) AppleWebKit/537.36 (KHTML, like Gecko) draw.io/20.8.16 Chrome/106.0.5249.199 Electron/21.4.0 Safari/537.36" etag="4V1-7fxG71rJpsRxNAS7" compressed="false" version="20.8.16" type="device" pages="2">
  <diagram id="qDX4AiIOP0VqB4wNC77p" name="v1">
    <mxGraphModel dx="766" dy="528" grid="1" gridSize="10" guides="1" tooltips="1" connect="1" arrows="1" fold="1" page="1" pageScale="1" pageWidth="827" pageHeight="1169" math="0" shadow="0">
      <root>
        <mxCell id="0" />
        <mxCell id="1" parent="0" />
        <mxCell id="lu_xs1eNRb6ThV-dJ1V6-22" value="s00" style="text;html=1;strokeColor=none;fillColor=none;align=center;verticalAlign=middle;whiteSpace=wrap;rounded=0;fontFamily=Lucida Console;" parent="1" vertex="1">
          <mxGeometry x="40" y="140" width="40" height="20" as="geometry" />
        </mxCell>
        <mxCell id="lu_xs1eNRb6ThV-dJ1V6-34" value="" style="endArrow=baseDash;html=1;rounded=0;startArrow=baseDash;startFill=0;endFill=0;" parent="1" edge="1">
          <mxGeometry width="50" height="50" relative="1" as="geometry">
            <mxPoint x="220" y="160" as="sourcePoint" />
            <mxPoint x="480" y="200" as="targetPoint" />
            <Array as="points">
              <mxPoint x="80" y="160" />
              <mxPoint x="80" y="200" />
            </Array>
          </mxGeometry>
        </mxCell>
        <mxCell id="lu_xs1eNRb6ThV-dJ1V6-35" value="" style="rounded=0;whiteSpace=wrap;html=1;" parent="1" vertex="1">
          <mxGeometry x="120" y="130" width="60" height="20" as="geometry" />
        </mxCell>
        <mxCell id="lu_xs1eNRb6ThV-dJ1V6-37" value="" style="rounded=0;whiteSpace=wrap;html=1;" parent="1" vertex="1">
          <mxGeometry x="120" y="210" width="60" height="20" as="geometry" />
        </mxCell>
        <mxCell id="lu_xs1eNRb6ThV-dJ1V6-38" value="" style="endArrow=baseDash;html=1;rounded=0;startArrow=baseDash;startFill=0;endFill=0;" parent="1" edge="1">
          <mxGeometry width="50" height="50" relative="1" as="geometry">
            <mxPoint x="220" y="159.31" as="sourcePoint" />
            <mxPoint x="200" y="119.31" as="targetPoint" />
          </mxGeometry>
        </mxCell>
        <mxCell id="lu_xs1eNRb6ThV-dJ1V6-39" value="" style="endArrow=baseDash;html=1;rounded=0;startArrow=baseDash;startFill=0;endFill=0;" parent="1" edge="1">
          <mxGeometry width="50" height="50" relative="1" as="geometry">
            <mxPoint x="240" y="159.31" as="sourcePoint" />
            <mxPoint x="260" y="119.31" as="targetPoint" />
          </mxGeometry>
        </mxCell>
        <mxCell id="lu_xs1eNRb6ThV-dJ1V6-40" value="" style="endArrow=baseDash;html=1;rounded=0;startArrow=baseDash;startFill=0;endFill=0;" parent="1" edge="1">
          <mxGeometry width="50" height="50" relative="1" as="geometry">
            <mxPoint x="200" y="119.31" as="sourcePoint" />
            <mxPoint x="260" y="119.31" as="targetPoint" />
          </mxGeometry>
        </mxCell>
        <mxCell id="lu_xs1eNRb6ThV-dJ1V6-41" value="" style="endArrow=baseDash;html=1;rounded=0;startArrow=baseDash;startFill=0;endFill=0;" parent="1" edge="1">
          <mxGeometry width="50" height="50" relative="1" as="geometry">
            <mxPoint x="220" y="159.31" as="sourcePoint" />
            <mxPoint x="240" y="159.31" as="targetPoint" />
          </mxGeometry>
        </mxCell>
        <mxCell id="lu_xs1eNRb6ThV-dJ1V6-42" value="" style="rounded=0;whiteSpace=wrap;html=1;" parent="1" vertex="1">
          <mxGeometry x="260" y="90" width="60" height="20" as="geometry" />
        </mxCell>
        <mxCell id="lu_xs1eNRb6ThV-dJ1V6-43" value="" style="endArrow=baseDash;html=1;rounded=0;startArrow=baseDash;startFill=0;endFill=0;" parent="1" edge="1">
          <mxGeometry width="50" height="50" relative="1" as="geometry">
            <mxPoint x="260" y="119.99999999999994" as="sourcePoint" />
            <mxPoint x="500" y="120" as="targetPoint" />
            <Array as="points">
              <mxPoint x="360" y="120" />
              <mxPoint x="380" y="80" />
              <mxPoint x="480" y="80" />
            </Array>
          </mxGeometry>
        </mxCell>
        <mxCell id="lu_xs1eNRb6ThV-dJ1V6-44" value="" style="endArrow=baseDash;html=1;rounded=0;startArrow=baseDash;startFill=0;endFill=0;" parent="1" edge="1">
          <mxGeometry width="50" height="50" relative="1" as="geometry">
            <mxPoint x="240" y="160" as="sourcePoint" />
            <mxPoint x="500" y="120" as="targetPoint" />
            <Array as="points">
              <mxPoint x="380" y="160" />
              <mxPoint x="400" y="120" />
            </Array>
          </mxGeometry>
        </mxCell>
        <mxCell id="jzYZCfLpujYyNgGkMgqu-1" value="" style="rounded=0;whiteSpace=wrap;html=1;" parent="1" vertex="1">
          <mxGeometry x="400" y="90" width="60" height="20" as="geometry" />
        </mxCell>
        <mxCell id="jzYZCfLpujYyNgGkMgqu-2" value="" style="endArrow=baseDash;html=1;rounded=0;startArrow=baseDash;startFill=0;endFill=0;" parent="1" edge="1">
          <mxGeometry width="50" height="50" relative="1" as="geometry">
            <mxPoint x="380" y="160" as="sourcePoint" />
            <mxPoint x="540" y="160" as="targetPoint" />
          </mxGeometry>
        </mxCell>
        <mxCell id="jzYZCfLpujYyNgGkMgqu-3" value="" style="endArrow=baseDash;html=1;rounded=0;startArrow=baseDash;startFill=0;endFill=0;" parent="1" edge="1">
          <mxGeometry width="50" height="50" relative="1" as="geometry">
            <mxPoint x="500" y="120" as="sourcePoint" />
            <mxPoint x="540" y="160" as="targetPoint" />
            <Array as="points">
              <mxPoint x="520" y="120" />
            </Array>
          </mxGeometry>
        </mxCell>
        <mxCell id="jzYZCfLpujYyNgGkMgqu-4" value="" style="endArrow=baseDash;html=1;rounded=0;startArrow=baseDash;startFill=0;endFill=0;" parent="1" edge="1">
          <mxGeometry width="50" height="50" relative="1" as="geometry">
            <mxPoint x="540" y="159.58" as="sourcePoint" />
            <mxPoint x="820" y="200" as="targetPoint" />
            <Array as="points">
              <mxPoint x="920" y="160" />
              <mxPoint x="920" y="200" />
            </Array>
          </mxGeometry>
        </mxCell>
        <mxCell id="jzYZCfLpujYyNgGkMgqu-5" value="" style="endArrow=baseDash;html=1;rounded=0;startArrow=baseDash;startFill=0;endFill=0;" parent="1" edge="1">
          <mxGeometry width="50" height="50" relative="1" as="geometry">
            <mxPoint x="519.9999999999999" y="120.00000000000004" as="sourcePoint" />
            <mxPoint x="800" y="240" as="targetPoint" />
            <Array as="points">
              <mxPoint x="960" y="120" />
              <mxPoint x="960" y="240" />
            </Array>
          </mxGeometry>
        </mxCell>
        <mxCell id="jzYZCfLpujYyNgGkMgqu-6" value="" style="rounded=0;whiteSpace=wrap;html=1;" parent="1" vertex="1">
          <mxGeometry x="540" y="90" width="60" height="20" as="geometry" />
        </mxCell>
        <mxCell id="jzYZCfLpujYyNgGkMgqu-7" value="" style="rounded=0;whiteSpace=wrap;html=1;" parent="1" vertex="1">
          <mxGeometry x="680" y="90" width="60" height="20" as="geometry" />
        </mxCell>
        <mxCell id="jzYZCfLpujYyNgGkMgqu-8" value="" style="rounded=0;whiteSpace=wrap;html=1;" parent="1" vertex="1">
          <mxGeometry x="820" y="130" width="60" height="20" as="geometry" />
        </mxCell>
        <mxCell id="jzYZCfLpujYyNgGkMgqu-9" value="" style="rounded=0;whiteSpace=wrap;html=1;" parent="1" vertex="1">
          <mxGeometry x="820" y="210" width="60" height="20" as="geometry" />
        </mxCell>
        <mxCell id="jzYZCfLpujYyNgGkMgqu-10" value="" style="endArrow=baseDash;html=1;rounded=0;startArrow=baseDash;startFill=0;endFill=0;" parent="1" edge="1">
          <mxGeometry width="50" height="50" relative="1" as="geometry">
            <mxPoint x="800" y="239.7" as="sourcePoint" />
            <mxPoint x="820" y="199.7" as="targetPoint" />
          </mxGeometry>
        </mxCell>
        <mxCell id="jzYZCfLpujYyNgGkMgqu-11" value="" style="endArrow=baseDash;html=1;rounded=0;startArrow=baseDash;startFill=0;endFill=0;" parent="1" edge="1">
          <mxGeometry width="50" height="50" relative="1" as="geometry">
            <mxPoint x="780" y="239.7" as="sourcePoint" />
            <mxPoint x="760" y="199.7" as="targetPoint" />
          </mxGeometry>
        </mxCell>
        <mxCell id="jzYZCfLpujYyNgGkMgqu-12" value="" style="endArrow=baseDash;html=1;rounded=0;startArrow=baseDash;startFill=0;endFill=0;" parent="1" edge="1">
          <mxGeometry width="50" height="50" relative="1" as="geometry">
            <mxPoint x="760" y="199.7" as="sourcePoint" />
            <mxPoint x="820" y="199.7" as="targetPoint" />
          </mxGeometry>
        </mxCell>
        <mxCell id="jzYZCfLpujYyNgGkMgqu-13" value="" style="endArrow=baseDash;html=1;rounded=0;startArrow=baseDash;startFill=0;endFill=0;" parent="1" edge="1">
          <mxGeometry width="50" height="50" relative="1" as="geometry">
            <mxPoint x="780" y="239.7" as="sourcePoint" />
            <mxPoint x="800" y="239.7" as="targetPoint" />
          </mxGeometry>
        </mxCell>
        <mxCell id="jzYZCfLpujYyNgGkMgqu-14" value="" style="rounded=0;whiteSpace=wrap;html=1;" parent="1" vertex="1">
          <mxGeometry x="680" y="170" width="60" height="20" as="geometry" />
        </mxCell>
        <mxCell id="jzYZCfLpujYyNgGkMgqu-15" value="" style="rounded=0;whiteSpace=wrap;html=1;" parent="1" vertex="1">
          <mxGeometry x="680" y="250" width="60" height="20" as="geometry" />
        </mxCell>
        <mxCell id="jzYZCfLpujYyNgGkMgqu-16" value="" style="endArrow=baseDash;html=1;rounded=0;startArrow=baseDash;startFill=0;endFill=0;" parent="1" edge="1">
          <mxGeometry width="50" height="50" relative="1" as="geometry">
            <mxPoint x="500" y="200" as="sourcePoint" />
            <mxPoint x="760" y="200" as="targetPoint" />
          </mxGeometry>
        </mxCell>
        <mxCell id="jzYZCfLpujYyNgGkMgqu-17" value="" style="endArrow=baseDash;html=1;rounded=0;startArrow=baseDash;startFill=0;endFill=0;" parent="1" edge="1">
          <mxGeometry width="50" height="50" relative="1" as="geometry">
            <mxPoint x="520" y="240" as="sourcePoint" />
            <mxPoint x="780" y="240" as="targetPoint" />
          </mxGeometry>
        </mxCell>
        <mxCell id="jzYZCfLpujYyNgGkMgqu-18" value="" style="rounded=0;whiteSpace=wrap;html=1;" parent="1" vertex="1">
          <mxGeometry x="540" y="250" width="60" height="20" as="geometry" />
        </mxCell>
        <mxCell id="jzYZCfLpujYyNgGkMgqu-19" value="" style="rounded=0;whiteSpace=wrap;html=1;" parent="1" vertex="1">
          <mxGeometry x="260" y="250" width="60" height="20" as="geometry" />
        </mxCell>
        <mxCell id="jzYZCfLpujYyNgGkMgqu-20" value="" style="endArrow=baseDash;html=1;rounded=0;startArrow=baseDash;startFill=0;endFill=0;" parent="1" edge="1">
          <mxGeometry width="50" height="50" relative="1" as="geometry">
            <mxPoint x="460" y="239.99999999999994" as="sourcePoint" />
            <mxPoint x="480" y="199.99999999999994" as="targetPoint" />
          </mxGeometry>
        </mxCell>
        <mxCell id="jzYZCfLpujYyNgGkMgqu-21" value="" style="endArrow=baseDash;html=1;rounded=0;startArrow=baseDash;startFill=0;endFill=0;" parent="1" edge="1">
          <mxGeometry width="50" height="50" relative="1" as="geometry">
            <mxPoint x="520" y="239.99999999999994" as="sourcePoint" />
            <mxPoint x="500" y="199.99999999999994" as="targetPoint" />
          </mxGeometry>
        </mxCell>
        <mxCell id="jzYZCfLpujYyNgGkMgqu-22" value="" style="endArrow=baseDash;html=1;rounded=0;startArrow=baseDash;startFill=0;endFill=0;" parent="1" edge="1">
          <mxGeometry width="50" height="50" relative="1" as="geometry">
            <mxPoint x="480" y="200" as="sourcePoint" />
            <mxPoint x="500" y="200" as="targetPoint" />
          </mxGeometry>
        </mxCell>
        <mxCell id="jzYZCfLpujYyNgGkMgqu-23" value="" style="endArrow=baseDash;html=1;rounded=0;startArrow=baseDash;startFill=0;endFill=0;" parent="1" edge="1">
          <mxGeometry width="50" height="50" relative="1" as="geometry">
            <mxPoint x="460" y="240" as="sourcePoint" />
            <mxPoint x="520" y="240" as="targetPoint" />
          </mxGeometry>
        </mxCell>
        <mxCell id="jzYZCfLpujYyNgGkMgqu-25" value="" style="rounded=0;whiteSpace=wrap;html=1;" parent="1" vertex="1">
          <mxGeometry x="400" y="210" width="60" height="20" as="geometry" />
        </mxCell>
        <mxCell id="jzYZCfLpujYyNgGkMgqu-26" value="" style="endArrow=baseDash;html=1;rounded=0;startArrow=baseDash;startFill=0;endFill=0;movable=1;resizable=1;rotatable=1;deletable=1;editable=1;connectable=1;" parent="1" edge="1">
          <mxGeometry width="50" height="50" relative="1" as="geometry">
            <mxPoint x="200" y="120" as="sourcePoint" />
            <mxPoint x="460" y="240" as="targetPoint" />
            <Array as="points">
              <mxPoint x="40" y="120" />
              <mxPoint x="40" y="240" />
            </Array>
          </mxGeometry>
        </mxCell>
      </root>
    </mxGraphModel>
  </diagram>
  <diagram name="v2" id="9n7vPRytGBd8-qQ8bjde">
    <mxGraphModel dx="333" dy="230" grid="1" gridSize="10" guides="1" tooltips="1" connect="1" arrows="1" fold="1" page="1" pageScale="1" pageWidth="827" pageHeight="1169" math="0" shadow="0">
      <root>
        <mxCell id="AcLKcFcPObNCE5Jz1mWQ-0" />
        <mxCell id="AcLKcFcPObNCE5Jz1mWQ-1" parent="AcLKcFcPObNCE5Jz1mWQ-0" />
        <object label="%id%" placeholders="1" type="section" id="s22">
          <mxCell style="endArrow=open;html=1;rounded=0;startArrow=baseDash;startFill=0;endFill=0;" parent="AcLKcFcPObNCE5Jz1mWQ-1" source="j14" edge="1" target="j1">
            <mxGeometry width="100" height="100" relative="1" as="geometry">
              <mxPoint x="960" y="400" as="sourcePoint" />
              <mxPoint x="440" y="320" as="targetPoint" />
              <Array as="points">
                <mxPoint x="160" y="400" />
                <mxPoint x="160" y="320" />
              </Array>
            </mxGeometry>
          </mxCell>
        </object>
        <object label="%id%" placeholders="1" type="platform" id="p0">
          <mxCell style="rounded=0;whiteSpace=wrap;html=1;" parent="AcLKcFcPObNCE5Jz1mWQ-1" vertex="1">
            <mxGeometry x="240" y="260" width="120" height="40" as="geometry" />
          </mxCell>
        </object>
        <object label="%id%" placeholders="1" type="platform" id="p1">
          <mxCell style="rounded=0;whiteSpace=wrap;html=1;" parent="AcLKcFcPObNCE5Jz1mWQ-1" vertex="1">
            <mxGeometry x="240" y="420" width="120" height="40" as="geometry" />
          </mxCell>
        </object>
        <object label="%id%" placeholders="1" type="section" id="s0">
          <mxCell style="endArrow=open;html=1;rounded=0;startArrow=baseDash;startFill=0;endFill=0;" parent="AcLKcFcPObNCE5Jz1mWQ-1" source="j0" target="j1" edge="1">
            <mxGeometry width="100" height="100" relative="1" as="geometry">
              <mxPoint x="400" y="238.62" as="sourcePoint" />
              <mxPoint x="440" y="318" as="targetPoint" />
            </mxGeometry>
          </mxCell>
        </object>
        <object label="%id%" placeholders="1" type="section" id="s3">
          <mxCell style="endArrow=open;html=1;rounded=0;startArrow=baseDash;startFill=0;endFill=0;" parent="AcLKcFcPObNCE5Jz1mWQ-1" source="j2" target="j3" edge="1">
            <mxGeometry width="100" height="100" relative="1" as="geometry">
              <mxPoint x="480" y="318.62" as="sourcePoint" />
              <mxPoint x="520" y="238.62" as="targetPoint" />
            </mxGeometry>
          </mxCell>
        </object>
        <object label="%id%" placeholders="1" type="section" id="s1">
          <mxCell style="endArrow=open;html=1;rounded=0;startArrow=baseDash;startFill=0;endFill=0;" parent="AcLKcFcPObNCE5Jz1mWQ-1" source="j0" target="j3" edge="1">
            <mxGeometry width="100" height="100" relative="1" as="geometry">
              <mxPoint x="440" y="230" as="sourcePoint" />
              <mxPoint x="520" y="238.62" as="targetPoint" />
            </mxGeometry>
          </mxCell>
        </object>
        <object label="%id%" placeholders="1" type="section" id="s2">
          <mxCell style="endArrow=open;html=1;rounded=0;startArrow=baseDash;startFill=0;endFill=0;" parent="AcLKcFcPObNCE5Jz1mWQ-1" source="j1" target="j2" edge="1">
            <mxGeometry width="100" height="100" relative="1" as="geometry">
              <mxPoint x="440" y="318.62" as="sourcePoint" />
              <mxPoint x="480" y="318.62" as="targetPoint" />
            </mxGeometry>
          </mxCell>
        </object>
        <object label="%id%" placeholders="1" type="platform" id="p2">
          <mxCell style="rounded=0;whiteSpace=wrap;html=1;" parent="AcLKcFcPObNCE5Jz1mWQ-1" vertex="1">
            <mxGeometry x="520" y="180" width="120" height="40" as="geometry" />
          </mxCell>
        </object>
        <object label="%id%" placeholders="1" type="section" id="s5">
          <mxCell style="endArrow=open;html=1;rounded=0;startArrow=baseDash;startFill=0;endFill=0;" parent="AcLKcFcPObNCE5Jz1mWQ-1" source="j3" edge="1" target="j5">
            <mxGeometry width="100" height="100" relative="1" as="geometry">
              <mxPoint x="520" y="239.9999999999999" as="sourcePoint" />
              <mxPoint x="1000" y="240" as="targetPoint" />
              <Array as="points">
                <mxPoint x="720" y="240" />
                <mxPoint x="760" y="160" />
                <mxPoint x="960" y="160" />
              </Array>
            </mxGeometry>
          </mxCell>
        </object>
        <object label="%id%" placeholders="1" type="section" id="s6">
          <mxCell style="endArrow=open;html=1;rounded=0;startArrow=baseDash;startFill=0;endFill=0;" parent="AcLKcFcPObNCE5Jz1mWQ-1" source="j4" edge="1" target="j5">
            <mxGeometry width="100" height="100" relative="1" as="geometry">
              <mxPoint x="480" y="320" as="sourcePoint" />
              <mxPoint x="1000" y="240" as="targetPoint" />
              <Array as="points">
                <mxPoint x="800" y="240" />
              </Array>
            </mxGeometry>
          </mxCell>
        </object>
        <object label="%id%" placeholders="1" type="platform" id="p4">
          <mxCell style="rounded=0;whiteSpace=wrap;html=1;" parent="AcLKcFcPObNCE5Jz1mWQ-1" vertex="1">
            <mxGeometry x="800" y="180" width="120" height="40" as="geometry" />
          </mxCell>
        </object>
        <object label="%id%" placeholders="1" type="section" id="s7">
          <mxCell style="endArrow=open;html=1;rounded=0;startArrow=baseDash;startFill=0;endFill=0;" parent="AcLKcFcPObNCE5Jz1mWQ-1" edge="1" target="j7" source="j4">
            <mxGeometry width="100" height="100" relative="1" as="geometry">
              <mxPoint x="760" y="320" as="sourcePoint" />
              <mxPoint x="1080" y="320" as="targetPoint" />
            </mxGeometry>
          </mxCell>
        </object>
        <object label="%id%" placeholders="1" type="section" id="s9">
          <mxCell style="endArrow=open;html=1;rounded=0;startArrow=baseDash;startFill=0;endFill=0;" parent="AcLKcFcPObNCE5Jz1mWQ-1" edge="1" target="j7" source="j6">
            <mxGeometry width="100" height="100" relative="1" as="geometry">
              <mxPoint x="1030" y="270" as="sourcePoint" />
              <mxPoint x="1080" y="320" as="targetPoint" />
              <Array as="points" />
            </mxGeometry>
          </mxCell>
        </object>
        <object label="%id%" placeholders="1" type="section" id="s11">
          <mxCell style="endArrow=open;html=1;rounded=0;startArrow=baseDash;startFill=0;endFill=0;" parent="AcLKcFcPObNCE5Jz1mWQ-1" edge="1" target="j8" source="j7">
            <mxGeometry width="100" height="100" relative="1" as="geometry">
              <mxPoint x="1080" y="319.16" as="sourcePoint" />
              <mxPoint x="1640" y="400" as="targetPoint" />
              <Array as="points">
                <mxPoint x="1840" y="320" />
                <mxPoint x="1840" y="400" />
              </Array>
            </mxGeometry>
          </mxCell>
        </object>
        <object label="%id%" placeholders="1" type="section" id="s10">
          <mxCell style="endArrow=open;html=1;rounded=0;startArrow=baseDash;startFill=0;endFill=0;" parent="AcLKcFcPObNCE5Jz1mWQ-1" edge="1" target="j9" source="j6">
            <mxGeometry width="100" height="100" relative="1" as="geometry">
              <mxPoint x="1039.9999999999998" y="240.00000000000009" as="sourcePoint" />
              <mxPoint x="1600" y="480" as="targetPoint" />
              <Array as="points">
                <mxPoint x="1920" y="240" />
                <mxPoint x="1920" y="480" />
              </Array>
            </mxGeometry>
          </mxCell>
        </object>
        <object label="%id%" placeholders="1" type="platform" id="p6">
          <mxCell style="rounded=0;whiteSpace=wrap;html=1;" parent="AcLKcFcPObNCE5Jz1mWQ-1" vertex="1">
            <mxGeometry x="1080" y="180" width="120" height="40" as="geometry" />
          </mxCell>
        </object>
        <object label="%id%" placeholders="1" type="platform" id="p8">
          <mxCell style="rounded=0;whiteSpace=wrap;html=1;" parent="AcLKcFcPObNCE5Jz1mWQ-1" vertex="1">
            <mxGeometry x="1360" y="180" width="120" height="40" as="geometry" />
          </mxCell>
        </object>
        <object label="%id%" placeholders="1" type="platform" id="p11">
          <mxCell style="rounded=0;whiteSpace=wrap;html=1;" parent="AcLKcFcPObNCE5Jz1mWQ-1" vertex="1">
            <mxGeometry x="1640" y="260" width="120" height="40" as="geometry" />
          </mxCell>
        </object>
        <object label="%id%" placeholders="1" type="platform" id="p12">
          <mxCell style="rounded=0;whiteSpace=wrap;html=1;" parent="AcLKcFcPObNCE5Jz1mWQ-1" vertex="1">
            <mxGeometry x="1640" y="420" width="120" height="40" as="geometry" />
          </mxCell>
        </object>
        <object label="%id%" placeholders="1" type="section" id="s12">
          <mxCell style="endArrow=open;html=1;rounded=0;startArrow=baseDash;startFill=0;endFill=0;" parent="AcLKcFcPObNCE5Jz1mWQ-1" edge="1" target="j9" source="j8">
            <mxGeometry width="100" height="100" relative="1" as="geometry">
              <mxPoint x="1640" y="399.4" as="sourcePoint" />
              <mxPoint x="1600" y="479.4" as="targetPoint" />
            </mxGeometry>
          </mxCell>
        </object>
        <object label="%id%" placeholders="1" type="section" id="s15">
          <mxCell style="endArrow=open;html=1;rounded=0;startArrow=baseDash;startFill=0;endFill=0;" parent="AcLKcFcPObNCE5Jz1mWQ-1" edge="1" target="j11" source="j10">
            <mxGeometry width="100" height="100" relative="1" as="geometry">
              <mxPoint x="1560" y="479.4" as="sourcePoint" />
              <mxPoint x="1520" y="399.4" as="targetPoint" />
            </mxGeometry>
          </mxCell>
        </object>
        <object label="%id%" placeholders="1" type="section" id="s13">
          <mxCell style="endArrow=open;html=1;rounded=0;startArrow=baseDash;startFill=0;endFill=0;" parent="AcLKcFcPObNCE5Jz1mWQ-1" edge="1" target="j11" source="j8">
            <mxGeometry width="100" height="100" relative="1" as="geometry">
              <mxPoint x="1640" y="399.4" as="sourcePoint" />
              <mxPoint x="1520" y="399.4" as="targetPoint" />
            </mxGeometry>
          </mxCell>
        </object>
        <object label="%id%" placeholders="1" type="section" id="s14">
          <mxCell style="endArrow=open;html=1;rounded=0;startArrow=baseDash;startFill=0;endFill=0;" parent="AcLKcFcPObNCE5Jz1mWQ-1" edge="1" target="j10" source="j9">
            <mxGeometry width="100" height="100" relative="1" as="geometry">
              <mxPoint x="1600" y="479.4" as="sourcePoint" />
              <mxPoint x="1560" y="479.4" as="targetPoint" />
            </mxGeometry>
          </mxCell>
        </object>
        <object label="%id%" placeholders="1" type="platform" id="p9">
          <mxCell style="rounded=0;whiteSpace=wrap;html=1;" parent="AcLKcFcPObNCE5Jz1mWQ-1" vertex="1">
            <mxGeometry x="1360" y="340" width="120" height="40" as="geometry" />
          </mxCell>
        </object>
        <object label="%id%" placeholders="1" type="platform" id="p10">
          <mxCell style="rounded=0;whiteSpace=wrap;html=1;" parent="AcLKcFcPObNCE5Jz1mWQ-1" vertex="1">
            <mxGeometry x="1360" y="500" width="120" height="40" as="geometry" />
          </mxCell>
        </object>
        <object label="%id%" placeholders="1" type="section" id="s17">
          <mxCell style="endArrow=open;html=1;rounded=0;startArrow=baseDash;startFill=0;endFill=0;" parent="AcLKcFcPObNCE5Jz1mWQ-1" edge="1" target="j13" source="j11">
            <mxGeometry width="100" height="100" relative="1" as="geometry">
              <mxPoint x="1510" y="380" as="sourcePoint" />
              <mxPoint x="1000" y="400" as="targetPoint" />
            </mxGeometry>
          </mxCell>
        </object>
        <object label="%id%" placeholders="1" type="section" id="s16">
          <mxCell style="endArrow=open;html=1;rounded=0;startArrow=baseDash;startFill=0;endFill=0;" parent="AcLKcFcPObNCE5Jz1mWQ-1" edge="1" target="j12" source="j10">
            <mxGeometry width="100" height="100" relative="1" as="geometry">
              <mxPoint x="1560" y="480" as="sourcePoint" />
              <mxPoint x="1040" y="480" as="targetPoint" />
            </mxGeometry>
          </mxCell>
        </object>
        <object label="%id%" placeholders="1" type="platform" id="p7">
          <mxCell style="rounded=0;whiteSpace=wrap;html=1;" parent="AcLKcFcPObNCE5Jz1mWQ-1" vertex="1">
            <mxGeometry x="1080" y="500" width="120" height="40" as="geometry" />
          </mxCell>
        </object>
        <object label="%id%" placeholders="1" type="platform" id="p3">
          <mxCell style="rounded=0;whiteSpace=wrap;html=1;" parent="AcLKcFcPObNCE5Jz1mWQ-1" vertex="1">
            <mxGeometry x="520" y="500" width="120" height="40" as="geometry" />
          </mxCell>
        </object>
        <object label="%id%" placeholders="1" type="section" id="s21">
          <mxCell style="endArrow=open;html=1;rounded=0;startArrow=baseDash;startFill=0;endFill=0;" parent="AcLKcFcPObNCE5Jz1mWQ-1" edge="1" target="j15" source="j14">
            <mxGeometry width="100" height="100" relative="1" as="geometry">
              <mxPoint x="960" y="399.9999999999999" as="sourcePoint" />
              <mxPoint x="920" y="479.9999999999999" as="targetPoint" />
            </mxGeometry>
          </mxCell>
        </object>
        <object label="%id%" placeholders="1" type="section" id="s18">
          <mxCell style="endArrow=open;html=1;rounded=0;startArrow=baseDash;startFill=0;endFill=0;" parent="AcLKcFcPObNCE5Jz1mWQ-1" edge="1" target="j13" source="j12">
            <mxGeometry width="100" height="100" relative="1" as="geometry">
              <mxPoint x="1040" y="479.9999999999999" as="sourcePoint" />
              <mxPoint x="1000" y="399.9999999999999" as="targetPoint" />
            </mxGeometry>
          </mxCell>
        </object>
        <object label="%id%" placeholders="1" type="section" id="s20">
          <mxCell style="endArrow=open;html=1;rounded=0;startArrow=baseDash;startFill=0;endFill=0;" parent="AcLKcFcPObNCE5Jz1mWQ-1" edge="1" target="j14" source="j13">
            <mxGeometry width="100" height="100" relative="1" as="geometry">
              <mxPoint x="1000" y="400" as="sourcePoint" />
              <mxPoint x="960" y="400" as="targetPoint" />
            </mxGeometry>
          </mxCell>
        </object>
        <object label="%id%" placeholders="1" type="section" id="s19">
          <mxCell style="endArrow=open;html=1;rounded=0;startArrow=baseDash;startFill=0;endFill=0;" parent="AcLKcFcPObNCE5Jz1mWQ-1" edge="1" target="j15" source="j12">
            <mxGeometry width="100" height="100" relative="1" as="geometry">
              <mxPoint x="1040" y="480" as="sourcePoint" />
              <mxPoint x="920" y="480" as="targetPoint" />
            </mxGeometry>
          </mxCell>
        </object>
        <object label="%id%" placeholders="1" type="platform" id="p5">
          <mxCell style="rounded=0;whiteSpace=wrap;html=1;" parent="AcLKcFcPObNCE5Jz1mWQ-1" vertex="1">
            <mxGeometry x="800" y="420" width="120" height="40" as="geometry" />
          </mxCell>
        </object>
        <object label="%id%" placeholders="1" type="section" id="s23">
          <mxCell style="endArrow=open;html=1;rounded=0;startArrow=baseDash;startFill=0;endFill=0;movable=1;resizable=1;rotatable=1;deletable=1;editable=1;connectable=1;" parent="AcLKcFcPObNCE5Jz1mWQ-1" source="j15" edge="1" target="j0">
            <mxGeometry width="100" height="100" relative="1" as="geometry">
              <mxPoint x="920" y="480" as="sourcePoint" />
              <mxPoint x="400" y="240" as="targetPoint" />
              <Array as="points">
                <mxPoint x="80" y="480" />
                <mxPoint x="80" y="240" />
              </Array>
            </mxGeometry>
          </mxCell>
        </object>
        <object label="%id%" placeholders="1" type="junction" id="j0">
          <mxCell style="ellipse;whiteSpace=wrap;html=1;aspect=fixed;perimeter=ellipsePerimeter;" parent="AcLKcFcPObNCE5Jz1mWQ-1" vertex="1">
            <mxGeometry x="390" y="230" width="20" height="20" as="geometry" />
          </mxCell>
        </object>
        <object label="%id%" placeholders="1" type="junction" id="j1">
          <mxCell style="ellipse;whiteSpace=wrap;html=1;aspect=fixed;" parent="AcLKcFcPObNCE5Jz1mWQ-1" vertex="1">
            <mxGeometry x="430" y="310" width="20" height="20" as="geometry" />
          </mxCell>
        </object>
        <object label="%id%" placeholders="1" type="section" id="s4">
          <mxCell style="rounded=0;orthogonalLoop=1;jettySize=auto;html=1;startArrow=baseDash;startFill=0;endArrow=open;endFill=0;" edge="1" parent="AcLKcFcPObNCE5Jz1mWQ-1" source="j2" target="j4">
            <mxGeometry relative="1" as="geometry" />
          </mxCell>
        </object>
        <object label="%id%" placeholders="1" type="junction" id="j2">
          <mxCell style="ellipse;whiteSpace=wrap;html=1;aspect=fixed;" parent="AcLKcFcPObNCE5Jz1mWQ-1" vertex="1">
            <mxGeometry x="470" y="310" width="20" height="20" as="geometry" />
          </mxCell>
        </object>
        <object label="%id%" placeholders="1" type="junction" id="j3">
          <mxCell style="ellipse;whiteSpace=wrap;html=1;aspect=fixed;" parent="AcLKcFcPObNCE5Jz1mWQ-1" vertex="1">
            <mxGeometry x="510" y="230" width="20" height="20" as="geometry" />
          </mxCell>
        </object>
        <object label="%id%" placeholders="1" type="junction" id="j14">
          <mxCell style="ellipse;whiteSpace=wrap;html=1;aspect=fixed;" vertex="1" parent="AcLKcFcPObNCE5Jz1mWQ-1">
            <mxGeometry x="950" y="390" width="20" height="20" as="geometry" />
          </mxCell>
        </object>
        <object label="%id%" placeholders="1" type="junction" id="j13">
          <mxCell style="ellipse;whiteSpace=wrap;html=1;aspect=fixed;" vertex="1" parent="AcLKcFcPObNCE5Jz1mWQ-1">
            <mxGeometry x="990" y="390" width="20" height="20" as="geometry" />
          </mxCell>
        </object>
        <object label="%id%" placeholders="1" type="junction" id="j15">
          <mxCell style="ellipse;whiteSpace=wrap;html=1;aspect=fixed;" vertex="1" parent="AcLKcFcPObNCE5Jz1mWQ-1">
            <mxGeometry x="910" y="470" width="20" height="20" as="geometry" />
          </mxCell>
        </object>
        <object label="%id%" placeholders="1" type="junction" id="j12">
          <mxCell style="ellipse;whiteSpace=wrap;html=1;aspect=fixed;" vertex="1" parent="AcLKcFcPObNCE5Jz1mWQ-1">
            <mxGeometry x="1030" y="470" width="20" height="20" as="geometry" />
          </mxCell>
        </object>
        <object label="%id%" placeholders="1" type="junction" id="j4">
          <mxCell style="ellipse;whiteSpace=wrap;html=1;aspect=fixed;" vertex="1" parent="AcLKcFcPObNCE5Jz1mWQ-1">
            <mxGeometry x="750" y="310" width="20" height="20" as="geometry" />
          </mxCell>
        </object>
        <object label="%id%" placeholders="1" type="junction" id="j5">
          <mxCell style="ellipse;whiteSpace=wrap;html=1;aspect=fixed;" vertex="1" parent="AcLKcFcPObNCE5Jz1mWQ-1">
            <mxGeometry x="990" y="230" width="20" height="20" as="geometry" />
          </mxCell>
        </object>
        <object label="%id%" placeholders="1" type="section" id="s8">
          <mxCell style="endArrow=open;html=1;rounded=0;startArrow=baseDash;startFill=0;endFill=0;" edge="1" parent="AcLKcFcPObNCE5Jz1mWQ-1" source="j5" target="j6">
            <mxGeometry width="100" height="100" relative="1" as="geometry">
              <mxPoint x="1040" y="280" as="sourcePoint" />
              <mxPoint x="1050" y="270" as="targetPoint" />
              <Array as="points" />
            </mxGeometry>
          </mxCell>
        </object>
        <object label="%id%" placeholders="1" type="junction" id="j6">
          <mxCell style="ellipse;whiteSpace=wrap;html=1;aspect=fixed;" vertex="1" parent="AcLKcFcPObNCE5Jz1mWQ-1">
            <mxGeometry x="1030" y="230" width="20" height="20" as="geometry" />
          </mxCell>
        </object>
        <object label="%id%" placeholders="1" type="junction" id="j7">
          <mxCell style="ellipse;whiteSpace=wrap;html=1;aspect=fixed;" vertex="1" parent="AcLKcFcPObNCE5Jz1mWQ-1">
            <mxGeometry x="1070" y="310" width="20" height="20" as="geometry" />
          </mxCell>
        </object>
        <object label="%id%" placeholders="1" type="junction" id="j11">
          <mxCell style="ellipse;whiteSpace=wrap;html=1;aspect=fixed;" vertex="1" parent="AcLKcFcPObNCE5Jz1mWQ-1">
            <mxGeometry x="1510" y="390" width="20" height="20" as="geometry" />
          </mxCell>
        </object>
        <object label="%id%" placeholders="1" type="junction" id="j10">
          <mxCell style="ellipse;whiteSpace=wrap;html=1;aspect=fixed;" vertex="1" parent="AcLKcFcPObNCE5Jz1mWQ-1">
            <mxGeometry x="1550" y="470" width="20" height="20" as="geometry" />
          </mxCell>
        </object>
        <object label="%id%" placeholders="1" type="junction" id="j9">
          <mxCell style="ellipse;whiteSpace=wrap;html=1;aspect=fixed;" vertex="1" parent="AcLKcFcPObNCE5Jz1mWQ-1">
            <mxGeometry x="1590" y="470" width="20" height="20" as="geometry" />
          </mxCell>
        </object>
        <object label="%id%" placeholders="1" type="junction" id="j8">
          <mxCell style="ellipse;whiteSpace=wrap;html=1;aspect=fixed;" vertex="1" parent="AcLKcFcPObNCE5Jz1mWQ-1">
            <mxGeometry x="1630" y="390" width="20" height="20" as="geometry" />
          </mxCell>
        </object>
      </root>
    </mxGraphModel>
  </diagram>
</mxfile>
